<svg xmlns="http://www.w3.org/2000/svg" viewBox="0 0 284.57 47.67"><defs><style>.cls-1{fill:#3a7aba;}</style></defs><title>Ativo 80</title><g id="Camada_2" data-name="Camada 2"><g id="Camada_1-2" data-name="Camada 1"><path class="cls-1" d="M27.63,47.62H17.55a17.55,17.55,0,0,1,0-35.1H27.63A2.46,2.46,0,0,1,30.09,15v8.14a2.46,2.46,0,1,1-4.92,0V17.44H17.55a12.63,12.63,0,1,0,0,25.26H27.63a2.46,2.46,0,0,1,0,4.92Z"/><path class="cls-1" d="M92.76,47.64H82.69a2.46,2.46,0,0,1-2.46-2.46V37a2.46,2.46,0,0,1,4.92,0v5.68h7.61a12.63,12.63,0,1,0,0-25.26H82.69a2.46,2.46,0,0,1,0-4.92H92.76a17.55,17.55,0,1,1,0,35.1Z"/><path class="cls-1" d="M238.18,47.64H228.11a2.46,2.46,0,0,1-2.46-2.46V37a2.46,2.46,0,0,1,4.92,0v5.68h7.61a12.63,12.63,0,1,0,0-25.26H228.11a2.46,2.46,0,0,1,0-4.92h10.07a17.55,17.55,0,0,1,0,35.1Z"/><path class="cls-1" d="M215.66,47.64H195.51a2.46,2.46,0,1,1,0-4.92h20.15a2.46,2.46,0,1,1,0,4.92Z"/><path class="cls-1" d="M215.66,17.46H195.51a2.46,2.46,0,0,1,0-4.92h20.15a2.46,2.46,0,0,1,0,4.92Z"/><path class="cls-1" d="M210.66,32.55H195.51a2.46,2.46,0,0,1,0-4.92h15.15a2.46,2.46,0,0,1,0,4.92Z"/><path class="cls-1" d="M183.07,47.67a2.46,2.46,0,0,1-2.46-2.46V21l-10.8,10.8a2.54,2.54,0,0,1-3.67,0L155.35,21V45.21a2.46,2.46,0,0,1-4.92,0V15a2.46,2.46,0,0,1,4.29-1.64L168,26.58l13.26-13.23A2.46,2.46,0,0,1,185.53,15V45.21A2.46,2.46,0,0,1,183.07,47.67Z"/><path class="cls-1" d="M55.16,47.64A17.55,17.55,0,1,1,72.71,30.09,17.57,17.57,0,0,1,55.16,47.64Zm0-30.18A12.63,12.63,0,1,0,67.79,30.09,12.64,12.64,0,0,0,55.16,17.46Z"/><path class="cls-1" d="M272,25.07a12.54,12.54,0,1,1,12.54-12.54A12.55,12.55,0,0,1,272,25.07Zm0-23a10.49,10.49,0,1,0,10.49,10.49A10.5,10.5,0,0,0,272,2Z"/><path class="cls-1" d="M272.44,9.85h-1.9v6.8a1.08,1.08,0,1,1-2.16,0V9.85h-1.9a1.08,1.08,0,1,1,0-2.16h6a1.08,1.08,0,1,1,0,2.16Z"/><path class="cls-1" d="M277.75,16.48a1.08,1.08,0,1,1-2.16,0V8.69a1.08,1.08,0,1,1,2.16,0Z"/><path class="cls-1" d="M140.45,47.64H120.3a2.46,2.46,0,1,1,0-4.92h20.15a2.46,2.46,0,1,1,0,4.92Z"/><path class="cls-1" d="M140.45,17.46H120.3a2.46,2.46,0,0,1,0-4.92h20.15a2.46,2.46,0,0,1,0,4.92Z"/><path class="cls-1" d="M135.43,32.55H120.3a2.46,2.46,0,0,1,0-4.92h15.14a2.46,2.46,0,0,1,0,4.92Z"/></g></g></svg>