<svg viewBox="0 0 512 512" xmlns="http://www.w3.org/2000/svg"><path d="M259.1 8.8c138.4-.7 252.3 114.4 249 255.1C505.1 398 394 509 255.6 507.3 119 505.6 6.3 391.8 9.9 251.3 13.3 117.8 123.4 8.2 259.1 8.8zM40.2 258.4C41.4 383.7 143 480.2 263 478c116.3-2.1 214.7-97 214.6-220.1 0-125.4-102.5-222.2-222.8-219.9-116.4 2.3-213.9 97.3-214.6 220.4z"/><path d="M402 150.6v213H116.4v-213H402zM259.8 280.7c-6.7-5.6-13.1-10.7-19.1-16.2-2.8-2.6-4.6-2.4-7.5-.1-23.5 19.1-47.2 38-70.7 57.1-1.3 1-2.1 3.3-2.2 5-.2 9.8.1 19.7-.2 29.5-.2 4.6 1.2 5.9 5.8 5.8 63.2-.2 126.3-.1 189.5-.1h5.5c0-13.6.1-26.5-.1-39.3 0-1.2-.9-2.9-2-3.6-26.1-18.6-52.4-37.2-78.7-55.8-6.7 5.9-13.3 11.6-20.3 17.7zm-.5-41.8c29.6-28.7 58.7-57 88.8-86.2h-174c28.2 28.5 56.1 56.8 85.2 86.2zm101.3 73.4V193.2c-25.6 22.2-50.7 43.9-76 65.9 25.7 18 50.6 35.4 76 53.2zm-128.1-54.8c-23.9-20.3-47.4-40.3-71.7-61v118.3c24.2-19.3 47.8-38.2 71.7-57.3z"/></svg>