<svg xmlns="http://www.w3.org/2000/svg" viewBox="0 0 284.57 47.67"><defs><style>.cls-1{fill:#3a7aba}</style></defs><g id="Camada_2" data-name="Camada 2"><g id="Camada_1-2" data-name="Camada 1"><path class="cls-1" d="M27.63 47.62H17.55a17.55 17.55 0 0 1 0-35.1h10.08A2.46 2.46 0 0 1 30.09 15v8.14a2.46 2.46 0 1 1-4.92 0v-5.7h-7.62a12.63 12.63 0 1 0 0 25.26h10.08a2.46 2.46 0 0 1 0 4.92zm65.13.02H82.69a2.46 2.46 0 0 1-2.46-2.46V37a2.46 2.46 0 0 1 4.92 0v5.68h7.61a12.63 12.63 0 1 0 0-25.26H82.69a2.46 2.46 0 0 1 0-4.92h10.07a17.55 17.55 0 1 1 0 35.1zm145.42 0h-10.07a2.46 2.46 0 0 1-2.46-2.46V37a2.46 2.46 0 0 1 4.92 0v5.68h7.61a12.63 12.63 0 1 0 0-25.26h-10.07a2.46 2.46 0 0 1 0-4.92h10.07a17.55 17.55 0 0 1 0 35.1zm-22.52 0h-20.15a2.46 2.46 0 1 1 0-4.92h20.15a2.46 2.46 0 1 1 0 4.92zm0-30.18h-20.15a2.46 2.46 0 0 1 0-4.92h20.15a2.46 2.46 0 0 1 0 4.92zm-5 15.09h-15.15a2.46 2.46 0 0 1 0-4.92h15.15a2.46 2.46 0 0 1 0 4.92zm-27.59 15.12a2.46 2.46 0 0 1-2.46-2.46V21l-10.8 10.8a2.54 2.54 0 0 1-3.67 0L155.35 21v24.21a2.46 2.46 0 0 1-4.92 0V15a2.46 2.46 0 0 1 4.29-1.64L168 26.58l13.26-13.23a2.46 2.46 0 0 1 4.27 1.65v30.21a2.46 2.46 0 0 1-2.46 2.46zm-127.91-.03a17.55 17.55 0 1 1 17.55-17.55 17.57 17.57 0 0 1-17.55 17.55zm0-30.18a12.63 12.63 0 1 0 12.63 12.63 12.64 12.64 0 0 0-12.63-12.63zM272 25.07a12.54 12.54 0 1 1 12.54-12.54A12.55 12.55 0 0 1 272 25.07zm0-23a10.49 10.49 0 1 0 10.49 10.49A10.5 10.5 0 0 0 272 2z"/><path class="cls-1" d="M272.44 9.85h-1.9v6.8a1.08 1.08 0 1 1-2.16 0v-6.8h-1.9a1.08 1.08 0 1 1 0-2.16h6a1.08 1.08 0 1 1 0 2.16zm5.31 6.63a1.08 1.08 0 1 1-2.16 0V8.69a1.08 1.08 0 1 1 2.16 0zm-137.3 31.16H120.3a2.46 2.46 0 1 1 0-4.92h20.15a2.46 2.46 0 1 1 0 4.92zm0-30.18H120.3a2.46 2.46 0 0 1 0-4.92h20.15a2.46 2.46 0 0 1 0 4.92zm-5.02 15.09H120.3a2.46 2.46 0 0 1 0-4.92h15.14a2.46 2.46 0 0 1 0 4.92z"/></g></g></svg>