<svg viewBox="0 0 512 512" xmlns="http://www.w3.org/2000/svg"><path d="M258.8 507.2C120.4 507.8 6.6 392.6 9.9 251.9 13 118 123.9 7.2 261.9 8.7 398.7 10.1 511.8 124 508.1 264.8c-3.5 133.4-113.5 243-249.3 242.4zm219-249.4C476.7 132.4 375.1 35.9 255.2 38 138.6 40 40.1 135.2 40.4 258.4 40.7 383.9 143.1 480.2 263 478c116.5-2.2 214-97.2 214.8-220.2z"/><path d="M99 230.2c10.3 2.9 20.3 5.8 30.4 8.6.3-.5.6-1.1.9-1.6-20.1-15.5-31-35.4-30.5-60.9.2-13.2 4.1-27.1 9.8-34.2 39 45.3 87.9 70.9 147 74.7.5-10.9-.1-21.3 1.6-31.3 7.3-42.1 55.6-68.6 95.4-53 9.4 3.7 17.8 8.9 25.4 15.6 1.5 1.3 4.6 2.4 6.4 1.8 12.1-4.1 24-8.6 36-13.1 1.7-.6 3.2-1.6 5.8-3-5.5 16.9-15.7 28.9-28.8 39.4 4.1-.7 8.2-1.3 12.2-2.2 4.4-1 8.7-2.3 13-3.7 4-1.3 8-2.8 13.1-4.7-9 13.5-19.1 24.2-30.9 33.3-3.4 2.6-4.7 5.1-4.7 9.5.5 55.5-18.3 103.8-55.2 144.8-28.8 32-64.9 51.9-107.3 60.1-32.1 6.2-63.9 5.6-95.6-2.7-19.4-5.1-37.7-13.1-54.8-23.6-.5-.3-.9-.8-1.9-1.7 38.9 3.3 73.5-6.1 105.2-29.9-33.1-3.2-55-19.6-67.3-50.5h30.3c.1-.5.2-1.1.3-1.6-20.6-5.6-36.5-17.4-46.9-36.1-6.1-10.7-8.8-22.2-8.9-34z"/></svg>